<svg version="1.1" viewBox="0.0 0.0 593.8162729658793 372.73490813648294" fill="none" stroke="none" stroke-linecap="square" stroke-miterlimit="10" xmlns:xlink="http://www.w3.org/1999/xlink" xmlns="http://www.w3.org/2000/svg"><clipPath id="p.0"><path d="m0 0l593.8163 0l0 372.7349l-593.8163 0l0 -372.7349z" clip-rule="nonzero"/></clipPath><g clip-path="url(#p.0)"><path fill="#000000" fill-opacity="0.0" d="m0 0l593.8163 0l0 372.7349l-593.8163 0z" fill-rule="evenodd"/><path fill="#cccccc" d="m0 91.2557l0 0c0 -30.580662 24.790524 -55.371185 55.371185 -55.371185l478.4545 0c14.685303 0 28.769226 5.8337326 39.15332 16.217846c10.384094 10.3841095 16.217834 24.46799 16.217834 39.15334l0 221.47809c0 30.580658 -24.790527 55.371185 -55.371155 55.371185l-478.4545 0c-30.580662 0 -55.371185 -24.790527 -55.371185 -55.371185z" fill-rule="evenodd"/><path stroke="#000000" stroke-width="8.0" stroke-linejoin="round" stroke-linecap="butt" d="m0 91.2557l0 0c0 -30.580662 24.790524 -55.371185 55.371185 -55.371185l478.4545 0c14.685303 0 28.769226 5.8337326 39.15332 16.217846c10.384094 10.3841095 16.217834 24.46799 16.217834 39.15334l0 221.47809c0 30.580658 -24.790527 55.371185 -55.371155 55.371185l-478.4545 0c-30.580662 0 -55.371185 -24.790527 -55.371185 -55.371185z" fill-rule="evenodd"/><path fill="#000000" d="m173.6378 201.99475l0 0c0 -66.80472 54.155914 -120.96063 120.96062 -120.96063l0 0c32.08075 0 62.847565 12.744034 85.532074 35.42855c22.68454 22.684517 35.42856 53.451332 35.42856 85.53208l0 0c0 66.80472 -54.155914 120.96063 -120.96063 120.96063l0 0c-66.8047 0 -120.96062 -54.155914 -120.96062 -120.96063zm60.4803 0l0 0c0 33.40236 27.077972 60.480316 60.480316 60.480316c33.402374 0 60.480316 -27.077957 60.480316 -60.480316c0 -33.40236 -27.077942 -60.480316 -60.480316 -60.480316l0 0c-33.402344 0 -60.480316 27.077957 -60.480316 60.480316z" fill-rule="evenodd"/><path stroke="#000000" stroke-width="1.0" stroke-linejoin="round" stroke-linecap="butt" d="m173.6378 201.99475l0 0c0 -66.80472 54.155914 -120.96063 120.96062 -120.96063l0 0c32.08075 0 62.847565 12.744034 85.532074 35.42855c22.68454 22.684517 35.42856 53.451332 35.42856 85.53208l0 0c0 66.80472 -54.155914 120.96063 -120.96063 120.96063l0 0c-66.8047 0 -120.96062 -54.155914 -120.96062 -120.96063zm60.4803 0l0 0c0 33.40236 27.077972 60.480316 60.480316 60.480316c33.402374 0 60.480316 -27.077957 60.480316 -60.480316c0 -33.40236 -27.077942 -60.480316 -60.480316 -60.480316l0 0c-33.402344 0 -60.480316 27.077957 -60.480316 60.480316z" fill-rule="evenodd"/><path fill="#000000" d="m63.855762 0l111.88428 0l5.979126 5.979122l0 29.894894l0 0l-123.84252 0l0 0l0 -29.894894z" fill-rule="evenodd"/><path stroke="#000000" stroke-width="1.0" stroke-linejoin="round" stroke-linecap="butt" d="m63.855762 0l111.88428 0l5.979126 5.979122l0 29.894894l0 0l-123.84252 0l0 0l0 -29.894894z" fill-rule="evenodd"/><path fill="#ffffff" d="m456.0761 63.664043l98.39368 0l0 35.874012l-98.39368 0z" fill-rule="evenodd"/><path stroke="#000000" stroke-width="8.0" stroke-linejoin="round" stroke-linecap="butt" d="m456.0761 63.664043l98.39368 0l0 35.874012l-98.39368 0z" fill-rule="evenodd"/></g></svg>